<svg id="Layer_1" data-name="Layer 1" xmlns="http://www.w3.org/2000/svg" viewBox="0 0 1000 652.45"><defs><style>.cls-1{fill:#66ccca;}.cls-2{fill:#59b2b0;}.cls-3{fill:#76e5e5;}</style></defs><rect class="cls-1" x="211.96" width="94.55" height="652.45"/><rect class="cls-1" x="730.46" y="15.78" width="94.55" height="370.84" transform="translate(370.06 -491.01) rotate(45)"/><polygon class="cls-2" points="306.51 0 259.01 153.25 313.63 342.3 359.8 500.99 359.83 500.99 403.75 652.45 514.43 652.45 306.51 0"/><polygon class="cls-3" points="211.96 0 169.3 131.29 0 652.45 111.13 652.45 155.94 500.99 155.97 500.99 207.81 326.22 259.01 153.25 306.51 0 211.96 0"/><path class="cls-2" d="M983.2,118.52a182.92,182.92,0,0,0-46.83-63.63q-30-26.2-71.48-40.33T774.6,0H663.92V86.93H774.6q27.33.45,48.85,9a102.53,102.53,0,0,1,60,60.94,132.92,132.92,0,0,1,8.07,47,121.85,121.85,0,0,1-8.07,44.81,99,99,0,0,1-23.3,35.4,107.59,107.59,0,0,1-36.74,23.08q-21.53,8.29-48.85,8.29H663.92V402.4H774.6q48.84-.43,90.29-14.34t71.48-39.88a182.24,182.24,0,0,0,46.83-62.73Q1000,248.7,1000,203,1000,156,983.2,118.52Z"/><polygon class="cls-3" points="663.92 86.93 663.92 0 556.37 0 556.37 652.45 663.92 652.45 663.92 446.71 663.92 402.4 663.92 315.47 663.92 86.93"/></svg>