<svg id="Layer_1" data-name="Layer 1" xmlns="http://www.w3.org/2000/svg" viewBox="0 0 1048.43 689.44"><defs><style>.cls-1{fill:#66ccca;}.cls-2{fill:#59b2b0;}.cls-3{fill:#76e5e5;}</style></defs><rect class="cls-1" x="260.39" y="37" width="94.55" height="652.45"/><rect class="cls-1" x="778.89" y="52.78" width="94.55" height="370.84" transform="translate(410.41 -514.42) rotate(45)"/><polygon class="cls-2" points="354.94 37 307.44 190.25 362.07 379.29 408.23 537.98 408.26 537.98 452.18 689.44 562.86 689.44 354.94 37"/><polygon class="cls-3" points="260.39 37 217.74 168.29 48.43 689.44 159.56 689.44 204.37 537.98 204.4 537.98 256.24 363.22 307.44 190.25 354.94 37 260.39 37"/><path class="cls-2" d="M1031.63,155.52A182.92,182.92,0,0,0,984.8,91.89q-30-26.22-71.47-40.33T823,37H712.35v86.93H823q27.33.45,48.85,9a105.25,105.25,0,0,1,36.74,24,103.8,103.8,0,0,1,23.3,37A133,133,0,0,1,940,240.89a121.85,121.85,0,0,1-8.07,44.81,98.87,98.87,0,0,1-23.3,35.4,107.57,107.57,0,0,1-36.74,23.07q-21.51,8.31-48.85,8.29H712.35V439.4H823q48.84-.45,90.3-14.34t71.47-39.88a182.28,182.28,0,0,0,46.83-62.74q16.8-36.74,16.8-82.45Q1048.43,192.94,1031.63,155.52Z"/><polygon class="cls-3" points="712.35 123.93 712.35 37 604.8 37 604.8 689.44 712.35 689.44 712.35 483.7 712.35 439.4 712.35 352.46 712.35 123.93"/><polygon class="cls-1" points="303.32 207.49 0 154 266.74 0 570.06 53.48 303.32 207.49"/><path class="cls-1" d="M447.28,225.81c-.55-3.17-12.46-70.69-12.46-70.69L307,228.59,161.85,203.26l12.46,70.68c.56,3.17,1.71,10.7,14.16,14.76,14.91,4.74,63.08,19.54,130.52,7.65s107.64-42.27,120-51.83C449.33,236.45,447.84,229,447.28,225.81Z"/><path class="cls-1" d="M494.15,121.54l23.47,133.14s-9.39,6.9-4.57,15.88,19.43,29.28,19.43,29.28,6.79-24.07,8.25-34.16S531,252.32,531,252.32L506.61,114Z"/></svg>
