<!-- <svg id="Layer_1" data-name="Layer 1" xmlns="http://www.w3.org/2000/svg" viewBox="0 0 875.69 89"><defs><style>.cls-1{fill:#76e5e5;}.cls-2{fill:#59b2b0;}</style></defs>
<path class="cls-1" d="M41.2,89a12.6,12.6,0,0,1-1-2.73c-.25-1-.47-2.16-.67-3.36A22.89,22.89,0,0,1,32.24,88a26,26,0,0,1-4.8,1.57,25.66,25.66,0,0,1-5.54.58,27.16,27.16,0,0,1-9-1.42A20.84,20.84,0,0,1,6,84.8,17.39,17.39,0,0,1,0,71.44Q0,61.36,7.5,56T29,50.7H39.17V46.58a9.94,9.94,0,0,0-3.36-7.9q-3.36-2.93-9.5-2.93a15.84,15.84,0,0,0-4.87.67A10.24,10.24,0,0,0,18,38.24,7.48,7.48,0,0,0,15.88,41a8.13,8.13,0,0,0-.7,3.36H1.33A15.78,15.78,0,0,1,3,37.23a18.64,18.64,0,0,1,5-6.15,25.91,25.91,0,0,1,8.09-4.31,33.9,33.9,0,0,1,10.92-1.62,37.21,37.21,0,0,1,10.31,1.36,24.27,24.27,0,0,1,8.23,4,19,19,0,0,1,5.45,6.72,21.28,21.28,0,0,1,2,9.42V74.63a43.18,43.18,0,0,0,.6,7.5A24.3,24.3,0,0,0,55.39,88v1ZM24.51,79a18.38,18.38,0,0,0,5-.66,19.3,19.3,0,0,0,4.23-1.74A15,15,0,0,0,37,74.11a14,14,0,0,0,2.17-2.84V59.5H30.36q-8.46,0-12.48,2.73a8.8,8.8,0,0,0-4,7.76,9.76,9.76,0,0,0,.64,3.57,7.28,7.28,0,0,0,1.94,2.83,9.44,9.44,0,0,0,3.3,1.89A14.71,14.71,0,0,0,24.51,79Z"/>
<path class="cls-1" d="M67.61,57.19a46.08,46.08,0,0,1,1.73-13,30.61,30.61,0,0,1,5-10.14,22.1,22.1,0,0,1,18.19-8.86,22.18,22.18,0,0,1,9.1,1.76A20.44,20.44,0,0,1,108.51,32V0h13.91V89H109.84l-.69-6.38a19.81,19.81,0,0,1-7.1,5.59,22.43,22.43,0,0,1-9.65,2,21.74,21.74,0,0,1-10.25-2.41,23.25,23.25,0,0,1-7.79-6.63,31.48,31.48,0,0,1-5-10.06A43.34,43.34,0,0,1,67.61,58.4ZM81.45,58.4a37.15,37.15,0,0,0,.81,7.94,19.87,19.87,0,0,0,2.58,6.49,13.14,13.14,0,0,0,4.52,4.38,13,13,0,0,0,6.58,1.59,13.51,13.51,0,0,0,7.76-2.06,14.73,14.73,0,0,0,4.81-5.53V44a14.53,14.53,0,0,0-4.84-5.45,13.45,13.45,0,0,0-7.62-2,12.85,12.85,0,0,0-6.63,1.62,13.15,13.15,0,0,0-4.52,4.47,21,21,0,0,0-2.61,6.6,36.69,36.69,0,0,0-.84,8Z"/>
<path class="cls-1" d="M145.7,26.3l.34,6.61a14.57,14.57,0,0,1,5-5.71,13.38,13.38,0,0,1,7.53-2.05,12.62,12.62,0,0,1,6.63,1.59,9.72,9.72,0,0,1,4,5,14.38,14.38,0,0,1,4.75-4.78,13.31,13.31,0,0,1,7-1.76,15.18,15.18,0,0,1,5.65,1A10.83,10.83,0,0,1,191,29.38,15.79,15.79,0,0,1,193.82,35a29.4,29.4,0,0,1,1,8.22V89H182V43.11q0-3.77-1.59-5.19a6,6,0,0,0-4.09-1.42,5.84,5.84,0,0,0-3.77,1.13,6.48,6.48,0,0,0-2,3V89H157.92V43.11q0-3.66-1.47-5.13a5.48,5.48,0,0,0-4-1.48,6.24,6.24,0,0,0-3.83,1,6.71,6.71,0,0,0-2.14,2.83V89H133.59V26.3Z"/>
<path class="cls-1" d="M209,26.3h33.43V77.52H261V89H209V77.52h19.47V37.83H209Zm18.31-16.22a7.32,7.32,0,0,1,2.08-5.36,7.85,7.85,0,0,1,5.86-2.11,8,8,0,0,1,5.93,2.11,7.27,7.27,0,0,1,2.12,5.36,7.26,7.26,0,0,1-2.12,5.36,8,8,0,0,1-5.93,2.12,7.86,7.86,0,0,1-5.86-2.12A7.3,7.3,0,0,1,227.27,10.08Z"/>
<path class="cls-1" d="M315,72a6.53,6.53,0,0,0-.64-2.87,6.18,6.18,0,0,0-2.29-2.37,19.29,19.29,0,0,0-4.52-2,64.5,64.5,0,0,0-7.33-1.8,73.81,73.81,0,0,1-10.05-2.78,32.85,32.85,0,0,1-7.71-3.88,16.83,16.83,0,0,1-4.95-5.25,13.45,13.45,0,0,1-1.74-6.92,15.49,15.49,0,0,1,1.8-7.27,18.48,18.48,0,0,1,5.12-6.06,26.22,26.22,0,0,1,8.11-4.14,35,35,0,0,1,10.7-1.53,37.31,37.31,0,0,1,11.21,1.56A26,26,0,0,1,321.12,31a18.62,18.62,0,0,1,5.24,6.34,17.24,17.24,0,0,1,1.83,7.83H314.34a8.24,8.24,0,0,0-.81-3.57,8.75,8.75,0,0,0-2.44-3,12.15,12.15,0,0,0-4-2.11,17.66,17.66,0,0,0-5.53-.79,19.62,19.62,0,0,0-5.42.67,12.4,12.4,0,0,0-3.8,1.74,6.82,6.82,0,0,0-2.23,2.52,6.67,6.67,0,0,0-.72,3,7.05,7.05,0,0,0,.55,2.84A5.6,5.6,0,0,0,292,48.73a16,16,0,0,0,4.18,1.88A56,56,0,0,0,303,52.2a76.94,76.94,0,0,1,10.63,2.61,32.29,32.29,0,0,1,8.06,3.83A16.29,16.29,0,0,1,326.85,64a14.2,14.2,0,0,1,1.8,7.27,15.67,15.67,0,0,1-1.91,7.65,18.1,18.1,0,0,1-5.45,6,26.82,26.82,0,0,1-8.49,3.91,40.89,40.89,0,0,1-11.09,1.39,36.57,36.57,0,0,1-12-1.82,27.78,27.78,0,0,1-8.75-4.78,20.28,20.28,0,0,1-5.36-6.72,17.33,17.33,0,0,1-1.83-7.65h13.45a9.79,9.79,0,0,0,1.5,4.92,10.41,10.41,0,0,0,3.42,3.28,15.09,15.09,0,0,0,4.64,1.79,24,24,0,0,0,5.15.55q6.44,0,9.79-2.17A6.48,6.48,0,0,0,315,72Z"/>
<path class="cls-1" d="M383.28,72a6.53,6.53,0,0,0-.64-2.87,6.18,6.18,0,0,0-2.29-2.37,19.29,19.29,0,0,0-4.52-2A64,64,0,0,0,368.5,63a73.81,73.81,0,0,1-10.05-2.78,33.05,33.05,0,0,1-7.71-3.88,16.83,16.83,0,0,1-4.95-5.25,13.45,13.45,0,0,1-1.74-6.92,15.49,15.49,0,0,1,1.8-7.27A18.39,18.39,0,0,1,351,30.82a26.11,26.11,0,0,1,8.11-4.14,34.94,34.94,0,0,1,10.69-1.53A37.26,37.26,0,0,1,381,26.71,26,26,0,0,1,389.36,31a18.62,18.62,0,0,1,5.24,6.34,17.24,17.24,0,0,1,1.83,7.83H382.58a8.24,8.24,0,0,0-.81-3.57,8.84,8.84,0,0,0-2.43-3,12.3,12.3,0,0,0-4-2.11,17.61,17.61,0,0,0-5.53-.79,19.62,19.62,0,0,0-5.42.67,12.4,12.4,0,0,0-3.8,1.74,6.91,6.91,0,0,0-2.23,2.52,6.67,6.67,0,0,0-.72,3,7.05,7.05,0,0,0,.55,2.84,5.63,5.63,0,0,0,2.06,2.32,15.78,15.78,0,0,0,4.17,1.88,56.43,56.43,0,0,0,6.89,1.59,77.1,77.1,0,0,1,10.64,2.61A32.38,32.38,0,0,1,390,58.64,16.42,16.42,0,0,1,395.1,64a14.3,14.3,0,0,1,1.79,7.27A15.56,15.56,0,0,1,395,78.92a18.06,18.06,0,0,1-5.44,6,27,27,0,0,1-8.49,3.91A41,41,0,0,1,370,90.21a36.61,36.61,0,0,1-12.05-1.82,27.89,27.89,0,0,1-8.75-4.78,20.28,20.28,0,0,1-5.36-6.72A17.32,17.32,0,0,1,342,69.24h13.44a9.89,9.89,0,0,0,1.5,4.92,10.41,10.41,0,0,0,3.42,3.28A15.09,15.09,0,0,0,365,79.23a24.16,24.16,0,0,0,5.15.55q6.44,0,9.8-2.17A6.47,6.47,0,0,0,383.28,72Z"/>
<path class="cls-1" d="M413.68,26.3h33.44V77.52h18.59V89h-52V77.52h19.47V37.83H413.68ZM432,10.08a7.33,7.33,0,0,1,2.09-5.36,7.84,7.84,0,0,1,5.85-2.11,8,8,0,0,1,5.94,2.11A7.27,7.27,0,0,1,448,10.08a7.26,7.26,0,0,1-2.12,5.36,8,8,0,0,1-5.94,2.12,7.85,7.85,0,0,1-5.85-2.12A7.31,7.31,0,0,1,432,10.08Z"/>
<path class="cls-1" d="M476.36,57.07a38.88,38.88,0,0,1,2-12.63A30.18,30.18,0,0,1,484.1,34.3a26.22,26.22,0,0,1,9.12-6.72,32.19,32.19,0,0,1,24.54,0,26.19,26.19,0,0,1,9.16,6.72,29.6,29.6,0,0,1,5.7,10.14,39.15,39.15,0,0,1,2,12.63v1.22a39.35,39.35,0,0,1-2,12.69,29.27,29.27,0,0,1-5.7,10.11,26.43,26.43,0,0,1-9.13,6.69,29.43,29.43,0,0,1-12.22,2.43,29.84,29.84,0,0,1-12.32-2.43,26.33,26.33,0,0,1-9.15-6.69A29.84,29.84,0,0,1,478.36,71a39.08,39.08,0,0,1-2-12.69Zm13.85,1.22a34.53,34.53,0,0,0,.9,8.05A21,21,0,0,0,493.89,73a14,14,0,0,0,4.78,4.52,13.71,13.71,0,0,0,6.9,1.65,13.34,13.34,0,0,0,6.75-1.65A14.14,14.14,0,0,0,517.07,73a21,21,0,0,0,2.78-6.64,34.53,34.53,0,0,0,.9-8.05V57.07a34.14,34.14,0,0,0-.9-7.94,20.49,20.49,0,0,0-2.78-6.6A14.44,14.44,0,0,0,512.32,38a14.83,14.83,0,0,0-13.71,0,14.06,14.06,0,0,0-4.75,4.52,20.68,20.68,0,0,0-2.75,6.6,34.14,34.14,0,0,0-.9,7.94Z"/>
<path class="cls-1" d="M559.67,26.3l.87,8.7a24.28,24.28,0,0,1,8.26-7.28,22.57,22.57,0,0,1,10.74-2.57,26.3,26.3,0,0,1,8.78,1.39,17.29,17.29,0,0,1,6.84,4.34,20,20,0,0,1,4.46,7.65,35.43,35.43,0,0,1,1.59,11.3V89H587.37V50.06a20.11,20.11,0,0,0-.9-6.49,10.18,10.18,0,0,0-2.55-4.17,9.42,9.42,0,0,0-4-2.23,20.12,20.12,0,0,0-5.39-.67,15.22,15.22,0,0,0-8,2,15.77,15.77,0,0,0-5.48,5.5V89h-13.9V26.3Z"/>
<path class="cls-1" d="M656.25,72a6.53,6.53,0,0,0-.64-2.87,6.18,6.18,0,0,0-2.29-2.37,19.29,19.29,0,0,0-4.52-2,64,64,0,0,0-7.33-1.8,73.81,73.81,0,0,1-10.05-2.78,33.05,33.05,0,0,1-7.71-3.88,16.83,16.83,0,0,1-5-5.25A13.45,13.45,0,0,1,617,44.15a15.49,15.49,0,0,1,1.8-7.27A18.39,18.39,0,0,1,624,30.82a26.11,26.11,0,0,1,8.11-4.14,34.94,34.94,0,0,1,10.69-1.53A37.26,37.26,0,0,1,654,26.71,26,26,0,0,1,662.33,31a18.62,18.62,0,0,1,5.24,6.34,17.24,17.24,0,0,1,1.83,7.83H655.55a8.24,8.24,0,0,0-.81-3.57,8.84,8.84,0,0,0-2.43-3,12.3,12.3,0,0,0-4-2.11,17.61,17.61,0,0,0-5.53-.79,19.62,19.62,0,0,0-5.42.67,12.4,12.4,0,0,0-3.8,1.74,6.91,6.91,0,0,0-2.23,2.52,6.67,6.67,0,0,0-.72,3,7.05,7.05,0,0,0,.55,2.84,5.63,5.63,0,0,0,2.06,2.32,15.78,15.78,0,0,0,4.17,1.88,56,56,0,0,0,6.89,1.59,76.58,76.58,0,0,1,10.63,2.61,32.29,32.29,0,0,1,8.06,3.83A16.42,16.42,0,0,1,668.07,64a14.3,14.3,0,0,1,1.79,7.27A15.56,15.56,0,0,1,668,78.92a18,18,0,0,1-5.45,6A26.87,26.87,0,0,1,654,88.82a41,41,0,0,1-11.1,1.39,36.61,36.61,0,0,1-12-1.82,27.89,27.89,0,0,1-8.75-4.78,20.28,20.28,0,0,1-5.36-6.72,17.32,17.32,0,0,1-1.82-7.65h13.44a9.89,9.89,0,0,0,1.5,4.92,10.41,10.41,0,0,0,3.42,3.28,15.09,15.09,0,0,0,4.64,1.79,24.16,24.16,0,0,0,5.15.55q6.43,0,9.8-2.17A6.47,6.47,0,0,0,656.25,72Z"/>
<path class="cls-2" d="M698.24,56.67V89h-13.9V4.64h28.21a36.76,36.76,0,0,1,11.68,1.88,27.12,27.12,0,0,1,9.24,5.21,23.54,23.54,0,0,1,6,8.23,26.38,26.38,0,0,1,2.18,10.92,25.3,25.3,0,0,1-2.18,10.66,23.28,23.28,0,0,1-6,8.11,27,27,0,0,1-9.24,5.16,37.62,37.62,0,0,1-11.68,1.86Zm0-11.24h14.31a17.38,17.38,0,0,0,6.32-1.08,13.9,13.9,0,0,0,4.75-3,12.78,12.78,0,0,0,3-4.58,15.64,15.64,0,0,0,1-5.79,17.16,17.16,0,0,0-1-6.09,13.5,13.5,0,0,0-3-4.78,13.73,13.73,0,0,0-4.75-3.1,17.79,17.79,0,0,0-6.32-1.15H698.24Z"/>
<path class="cls-2" d="M791.86,89a13.17,13.17,0,0,1-1-2.73c-.26-1-.48-2.16-.67-3.36A23.64,23.64,0,0,1,787,85.72,22.39,22.39,0,0,1,782.91,88a26.07,26.07,0,0,1-4.81,1.57,25.56,25.56,0,0,1-5.53.58,27.12,27.12,0,0,1-9-1.42,20.89,20.89,0,0,1-6.9-3.94,17.43,17.43,0,0,1-6-13.36q0-10.08,7.5-15.41t21.52-5.33h10.14V46.58a9.94,9.94,0,0,0-3.36-7.9q-3.36-2.93-9.5-2.93a15.93,15.93,0,0,0-4.87.67,10.09,10.09,0,0,0-3.47,1.82A7.51,7.51,0,0,0,766.54,41a8.28,8.28,0,0,0-.69,3.36H752a15.78,15.78,0,0,1,1.71-7.09,18.64,18.64,0,0,1,5-6.15,25.86,25.86,0,0,1,8.08-4.31,34,34,0,0,1,10.92-1.62A37.28,37.28,0,0,1,788,26.51a24.27,24.27,0,0,1,8.23,4,19,19,0,0,1,5.44,6.72,21.28,21.28,0,0,1,2,9.42V74.63a42.17,42.17,0,0,0,.61,7.5A23.86,23.86,0,0,0,806.06,88v1ZM775.17,79a18.51,18.51,0,0,0,5-.66,19.72,19.72,0,0,0,4.23-1.74,15.17,15.17,0,0,0,3.24-2.46,13.67,13.67,0,0,0,2.17-2.84V59.5H781q-8.46,0-12.49,2.73a8.82,8.82,0,0,0-4,7.76,10,10,0,0,0,.64,3.57,7.39,7.39,0,0,0,1.94,2.83,9.4,9.4,0,0,0,3.31,1.89A14.65,14.65,0,0,0,775.17,79Z"/>
<path class="cls-2" d="M822.67,0h33.9V77.52h19.12V89h-53V77.52h19.94v-66H822.67Z"/></svg> -->

<svg id="Layer_1" data-name="Layer 1" xmlns="http://www.w3.org/2000/svg" viewBox="0 0 801.24 89"><defs><style>.cls-1{fill:#76e5e5;}.cls-2{fill:#59b2b0;}</style></defs><path class="cls-1" d="M45.9,68.48h-26L14.18,87.8H0L27,4.57H39.1L65.62,87.8H51.5ZM23.38,56.76H42.47L33,24.12Z"/><path class="cls-1" d="M71.38,56.42a45.53,45.53,0,0,1,1.71-12.86,30.5,30.5,0,0,1,4.92-10A21.83,21.83,0,0,1,96,24.81a21.75,21.75,0,0,1,9,1.74,20,20,0,0,1,6.8,5V0h13.72V87.8h-12.4l-.69-6.29a19.47,19.47,0,0,1-7,5.51,22.16,22.16,0,0,1-9.52,1.92,21.42,21.42,0,0,1-10.11-2.37A23,23,0,0,1,78,80a31,31,0,0,1-4.92-9.91,43,43,0,0,1-1.74-12.49ZM85,57.62a36.83,36.83,0,0,0,.8,7.83,19.62,19.62,0,0,0,2.54,6.4,12.31,12.31,0,0,0,11,5.89,13.32,13.32,0,0,0,7.66-2,14.66,14.66,0,0,0,4.74-5.46V43.38A14.35,14.35,0,0,0,107,38a13.27,13.27,0,0,0-7.51-2,12.64,12.64,0,0,0-6.55,1.6A13,13,0,0,0,88.44,42a20.81,20.81,0,0,0-2.57,6.52A36.3,36.3,0,0,0,85,56.42Z"/><path class="cls-1" d="M148.42,26l.34,6.52a14.32,14.32,0,0,1,4.92-5.63,13.16,13.16,0,0,1,7.43-2,12.42,12.42,0,0,1,6.54,1.57,9.62,9.62,0,0,1,3.92,4.89,13.93,13.93,0,0,1,4.69-4.72,13,13,0,0,1,6.91-1.74,15,15,0,0,1,5.57,1A10.53,10.53,0,0,1,193.09,29a15.59,15.59,0,0,1,2.8,5.54,28.73,28.73,0,0,1,1,8.12V87.8H184.2V42.53q0-3.72-1.57-5.12a5.85,5.85,0,0,0-4-1.4,5.77,5.77,0,0,0-3.72,1.11,6.45,6.45,0,0,0-2,3V87.8h-12.4V42.53q0-3.6-1.46-5.06a5.36,5.36,0,0,0-4-1.46,6.12,6.12,0,0,0-3.77,1,6.57,6.57,0,0,0-2.12,2.8v48H136.47V26Z"/><path class="cls-1" d="M210.83,26h33V76.48h18.34V87.8H210.83V76.48H230V37.32h-19.2Zm18.06-16A7.18,7.18,0,0,1,231,4.66a7.73,7.73,0,0,1,5.77-2.09,7.94,7.94,0,0,1,5.86,2.09A7.16,7.16,0,0,1,244.66,10a7.15,7.15,0,0,1-2.08,5.28,7.94,7.94,0,0,1-5.86,2.09A7.73,7.73,0,0,1,231,15.23,7.18,7.18,0,0,1,228.89,10Z"/><path class="cls-1" d="M315.47,71.05a6.35,6.35,0,0,0-.63-2.83,6.06,6.06,0,0,0-2.25-2.34,19.14,19.14,0,0,0-4.46-2,63.94,63.94,0,0,0-7.23-1.77A72.32,72.32,0,0,1,291,59.39a32.5,32.5,0,0,1-7.6-3.83,16.48,16.48,0,0,1-4.89-5.17,13.37,13.37,0,0,1-1.71-6.83,15.35,15.35,0,0,1,1.77-7.18,18.11,18.11,0,0,1,5.06-6,25.32,25.32,0,0,1,8-4.09,34.36,34.36,0,0,1,10.54-1.51,36.59,36.59,0,0,1,11.06,1.54,25.67,25.67,0,0,1,8.26,4.2,18.4,18.4,0,0,1,5.18,6.26,17,17,0,0,1,1.8,7.72H314.79A8.19,8.19,0,0,0,314,41a9,9,0,0,0-2.4-3,12.2,12.2,0,0,0-4-2.09,17.77,17.77,0,0,0-5.46-.77,19.15,19.15,0,0,0-5.34.66,12.48,12.48,0,0,0-3.74,1.71,6.71,6.71,0,0,0-2.2,2.49,6.5,6.5,0,0,0-.72,3,7,7,0,0,0,.54,2.8,5.55,5.55,0,0,0,2,2.29,15.24,15.24,0,0,0,4.12,1.86,55.37,55.37,0,0,0,6.8,1.57,75.31,75.31,0,0,1,10.49,2.57,32.38,32.38,0,0,1,7.94,3.77,16.29,16.29,0,0,1,5.06,5.29,14.08,14.08,0,0,1,1.77,7.18A15.37,15.37,0,0,1,327,77.85a17.84,17.84,0,0,1-5.37,5.92,26.88,26.88,0,0,1-8.38,3.85A40.27,40.27,0,0,1,302.33,89a35.94,35.94,0,0,1-11.89-1.8,27.45,27.45,0,0,1-8.63-4.72,19.87,19.87,0,0,1-5.29-6.63,17.14,17.14,0,0,1-1.8-7.54H288a9.74,9.74,0,0,0,1.48,4.85,10.33,10.33,0,0,0,3.38,3.23,14.9,14.9,0,0,0,4.57,1.77,23.55,23.55,0,0,0,5.09.55q6.35,0,9.66-2.15A6.35,6.35,0,0,0,315.47,71.05Z"/><path class="cls-1" d="M382.79,71.05a6.48,6.48,0,0,0-.62-2.83,6.09,6.09,0,0,0-2.26-2.34,18.94,18.94,0,0,0-4.46-2,63.94,63.94,0,0,0-7.23-1.77,72.32,72.32,0,0,1-9.92-2.74,32.5,32.5,0,0,1-7.6-3.83,16.6,16.6,0,0,1-4.89-5.17,13.37,13.37,0,0,1-1.71-6.83,15.35,15.35,0,0,1,1.77-7.18,18.23,18.23,0,0,1,5.06-6,25.43,25.43,0,0,1,8-4.09,34.38,34.38,0,0,1,10.55-1.51,36.68,36.68,0,0,1,11.06,1.54,25.88,25.88,0,0,1,8.26,4.2A18.48,18.48,0,0,1,394,36.81a17,17,0,0,1,1.8,7.72H382.11a8.19,8.19,0,0,0-.8-3.52,9,9,0,0,0-2.4-3,12.1,12.1,0,0,0-4-2.09,17.75,17.75,0,0,0-5.45-.77,19.22,19.22,0,0,0-5.35.66,12.6,12.6,0,0,0-3.74,1.71,6.8,6.8,0,0,0-2.2,2.49,6.5,6.5,0,0,0-.72,3,6.83,6.83,0,0,0,.55,2.8,5.51,5.51,0,0,0,2,2.29,15.38,15.38,0,0,0,4.12,1.86A55.37,55.37,0,0,0,371,51.5a75.31,75.31,0,0,1,10.49,2.57,32.45,32.45,0,0,1,7.95,3.77,16.25,16.25,0,0,1,5.05,5.29,14,14,0,0,1,1.78,7.18,15.37,15.37,0,0,1-1.89,7.54A17.84,17.84,0,0,1,389,83.77a26.88,26.88,0,0,1-8.38,3.85A40.17,40.17,0,0,1,369.65,89a35.94,35.94,0,0,1-11.89-1.8,27.45,27.45,0,0,1-8.63-4.72,19.87,19.87,0,0,1-5.29-6.63,17.14,17.14,0,0,1-1.8-7.54H355.3a9.65,9.65,0,0,0,1.49,4.85,10.2,10.2,0,0,0,3.37,3.23,14.9,14.9,0,0,0,4.57,1.77,23.55,23.55,0,0,0,5.09.55q6.35,0,9.66-2.15A6.35,6.35,0,0,0,382.79,71.05Z"/><path class="cls-1" d="M412.79,26h33V76.48h18.35V87.8H412.79V76.48H432V37.32H412.79Zm18.06-16a7.22,7.22,0,0,1,2.06-5.29,7.75,7.75,0,0,1,5.77-2.09,7.92,7.92,0,0,1,5.86,2.09A7.17,7.17,0,0,1,446.63,10a7.16,7.16,0,0,1-2.09,5.28,7.92,7.92,0,0,1-5.86,2.09,7.75,7.75,0,0,1-5.77-2.09A7.21,7.21,0,0,1,430.85,10Z"/><path class="cls-1" d="M474.63,56.3a38.16,38.16,0,0,1,2-12.46,29.45,29.45,0,0,1,5.66-10,25.78,25.78,0,0,1,9-6.63,29,29,0,0,1,12.06-2.4,29.41,29.41,0,0,1,12.15,2.4,25.9,25.9,0,0,1,9,6.63,29.39,29.39,0,0,1,5.63,10,39,39,0,0,1,1.94,12.46v1.2A39.16,39.16,0,0,1,530.13,70a29.06,29.06,0,0,1-5.63,10,26.12,26.12,0,0,1-9,6.61A29,29,0,0,1,503.43,89a29.33,29.33,0,0,1-12.14-2.4,25.91,25.91,0,0,1-9-6.61,29.12,29.12,0,0,1-5.66-10,38.35,38.35,0,0,1-2-12.52Zm13.66,1.2a34.28,34.28,0,0,0,.88,8A20.4,20.4,0,0,0,491.92,72a13.66,13.66,0,0,0,4.71,4.46,13.48,13.48,0,0,0,6.8,1.63,13,13,0,0,0,6.66-1.63A13.78,13.78,0,0,0,514.78,72a20.39,20.39,0,0,0,2.74-6.54,34.27,34.27,0,0,0,.89-8V56.3a33.73,33.73,0,0,0-.89-7.83A20.09,20.09,0,0,0,514.78,42a14.14,14.14,0,0,0-4.69-4.45,14.59,14.59,0,0,0-13.52,0A13.83,13.83,0,0,0,491.89,42a20.51,20.51,0,0,0-2.72,6.52,33.73,33.73,0,0,0-.88,7.83Z"/><path class="cls-1" d="M556.81,26l.86,8.57a24,24,0,0,1,8.14-7.17,22.25,22.25,0,0,1,10.6-2.54,25.88,25.88,0,0,1,8.66,1.37,17.11,17.11,0,0,1,6.75,4.29,19.79,19.79,0,0,1,4.4,7.54,34.81,34.81,0,0,1,1.57,11.15V87.8H584.13V49.39a19.93,19.93,0,0,0-.89-6.41,10,10,0,0,0-2.51-4.11,9.37,9.37,0,0,0-4-2.2,19.71,19.71,0,0,0-5.32-.66,15.06,15.06,0,0,0-7.86,2,15.43,15.43,0,0,0-5.4,5.43V87.8H544.46V26Z"/><path class="cls-2" d="M626.19,55.9V87.8H612.47V4.57h27.84a36.58,36.58,0,0,1,11.51,1.86,26.91,26.91,0,0,1,9.12,5.14,23.26,23.26,0,0,1,6,8.12,26,26,0,0,1,2.15,10.78A25,25,0,0,1,666.91,41a23.12,23.12,0,0,1-6,8,26.63,26.63,0,0,1-9.12,5.08,37.17,37.17,0,0,1-11.51,1.83Zm0-11.09h14.12a17.35,17.35,0,0,0,6.23-1.05,13.68,13.68,0,0,0,4.68-2.95,12.65,12.65,0,0,0,3-4.51,15.71,15.71,0,0,0,1-5.72,17.1,17.1,0,0,0-1-6,13.32,13.32,0,0,0-3-4.72,13.49,13.49,0,0,0-4.68-3.06,17.77,17.77,0,0,0-6.23-1.14H626.19Z"/><path class="cls-2" d="M718.55,87.8a12.42,12.42,0,0,1-.95-2.69c-.25-1-.46-2.13-.65-3.32a23.09,23.09,0,0,1-3.23,2.78,22.4,22.4,0,0,1-4,2.25,24.75,24.75,0,0,1-10.2,2.12,26.7,26.7,0,0,1-8.89-1.4,20.51,20.51,0,0,1-6.8-3.89,17.2,17.2,0,0,1-5.91-13.17q0-9.95,7.4-15.21T706.54,50h10V46a9.84,9.84,0,0,0-3.32-7.81q-3.32-2.88-9.37-2.88a16.18,16.18,0,0,0-4.81.65,10.08,10.08,0,0,0-3.42,1.8,7.3,7.3,0,0,0-2.06,2.69,8.06,8.06,0,0,0-.69,3.32H679.22a15.56,15.56,0,0,1,1.69-7,18.3,18.3,0,0,1,4.94-6,25.08,25.08,0,0,1,8-4.26,33.44,33.44,0,0,1,10.78-1.6,37,37,0,0,1,10.17,1.34,23.91,23.91,0,0,1,8.12,4,18.48,18.48,0,0,1,5.37,6.63,20.87,20.87,0,0,1,2,9.29V73.62a42,42,0,0,0,.6,7.4,23.65,23.65,0,0,0,1.74,5.8v1Zm-16.47-9.89a18,18,0,0,0,4.95-.66,19.16,19.16,0,0,0,4.17-1.71,14.56,14.56,0,0,0,3.2-2.43,13.71,13.71,0,0,0,2.15-2.8V58.7h-8.69q-8.36,0-12.32,2.69a8.69,8.69,0,0,0-4,7.66,9.6,9.6,0,0,0,.63,3.51,7.11,7.11,0,0,0,1.91,2.8,9.2,9.2,0,0,0,3.26,1.86A14.31,14.31,0,0,0,702.08,77.91Z"/><path class="cls-2" d="M748.94,0h33.44V76.48h18.86V87.8h-52.3V76.48h19.67V11.37H748.94Z"/></svg>
