<svg id="Layer_1" data-name="Layer 1" xmlns="http://www.w3.org/2000/svg" viewBox="0 0 875.69 89"><defs><style>.cls-1{fill:#76e5e5;}.cls-2{fill:#59b2b0;}</style></defs>
<path class="cls-1" d="M41.2,89a12.6,12.6,0,0,1-1-2.73c-.25-1-.47-2.16-.67-3.36A22.89,22.89,0,0,1,32.24,88a26,26,0,0,1-4.8,1.57,25.66,25.66,0,0,1-5.54.58,27.16,27.16,0,0,1-9-1.42A20.84,20.84,0,0,1,6,84.8,17.39,17.39,0,0,1,0,71.44Q0,61.36,7.5,56T29,50.7H39.17V46.58a9.94,9.94,0,0,0-3.36-7.9q-3.36-2.93-9.5-2.93a15.84,15.84,0,0,0-4.87.67A10.24,10.24,0,0,0,18,38.24,7.48,7.48,0,0,0,15.88,41a8.13,8.13,0,0,0-.7,3.36H1.33A15.78,15.78,0,0,1,3,37.23a18.64,18.64,0,0,1,5-6.15,25.91,25.91,0,0,1,8.09-4.31,33.9,33.9,0,0,1,10.92-1.62,37.21,37.21,0,0,1,10.31,1.36,24.27,24.27,0,0,1,8.23,4,19,19,0,0,1,5.45,6.72,21.28,21.28,0,0,1,2,9.42V74.63a43.18,43.18,0,0,0,.6,7.5A24.3,24.3,0,0,0,55.39,88v1ZM24.51,79a18.38,18.38,0,0,0,5-.66,19.3,19.3,0,0,0,4.23-1.74A15,15,0,0,0,37,74.11a14,14,0,0,0,2.17-2.84V59.5H30.36q-8.46,0-12.48,2.73a8.8,8.8,0,0,0-4,7.76,9.76,9.76,0,0,0,.64,3.57,7.28,7.28,0,0,0,1.94,2.83,9.44,9.44,0,0,0,3.3,1.89A14.71,14.71,0,0,0,24.51,79Z"/>
<path class="cls-1" d="M67.61,57.19a46.08,46.08,0,0,1,1.73-13,30.61,30.61,0,0,1,5-10.14,22.1,22.1,0,0,1,18.19-8.86,22.18,22.18,0,0,1,9.1,1.76A20.44,20.44,0,0,1,108.51,32V0h13.91V89H109.84l-.69-6.38a19.81,19.81,0,0,1-7.1,5.59,22.43,22.43,0,0,1-9.65,2,21.74,21.74,0,0,1-10.25-2.41,23.25,23.25,0,0,1-7.79-6.63,31.48,31.48,0,0,1-5-10.06A43.34,43.34,0,0,1,67.61,58.4ZM81.45,58.4a37.15,37.15,0,0,0,.81,7.94,19.87,19.87,0,0,0,2.58,6.49,13.14,13.14,0,0,0,4.52,4.38,13,13,0,0,0,6.58,1.59,13.51,13.51,0,0,0,7.76-2.06,14.73,14.73,0,0,0,4.81-5.53V44a14.53,14.53,0,0,0-4.84-5.45,13.45,13.45,0,0,0-7.62-2,12.85,12.85,0,0,0-6.63,1.62,13.15,13.15,0,0,0-4.52,4.47,21,21,0,0,0-2.61,6.6,36.69,36.69,0,0,0-.84,8Z"/>
<path class="cls-1" d="M145.7,26.3l.34,6.61a14.57,14.57,0,0,1,5-5.71,13.38,13.38,0,0,1,7.53-2.05,12.62,12.62,0,0,1,6.63,1.59,9.72,9.72,0,0,1,4,5,14.38,14.38,0,0,1,4.75-4.78,13.31,13.31,0,0,1,7-1.76,15.18,15.18,0,0,1,5.65,1A10.83,10.83,0,0,1,191,29.38,15.79,15.79,0,0,1,193.82,35a29.4,29.4,0,0,1,1,8.22V89H182V43.11q0-3.77-1.59-5.19a6,6,0,0,0-4.09-1.42,5.84,5.84,0,0,0-3.77,1.13,6.48,6.48,0,0,0-2,3V89H157.92V43.11q0-3.66-1.47-5.13a5.48,5.48,0,0,0-4-1.48,6.24,6.24,0,0,0-3.83,1,6.71,6.71,0,0,0-2.14,2.83V89H133.59V26.3Z"/>
<path class="cls-1" d="M209,26.3h33.43V77.52H261V89H209V77.52h19.47V37.83H209Zm18.31-16.22a7.32,7.32,0,0,1,2.08-5.36,7.85,7.85,0,0,1,5.86-2.11,8,8,0,0,1,5.93,2.11,7.27,7.27,0,0,1,2.12,5.36,7.26,7.26,0,0,1-2.12,5.36,8,8,0,0,1-5.93,2.12,7.86,7.86,0,0,1-5.86-2.12A7.3,7.3,0,0,1,227.27,10.08Z"/>
<path class="cls-1" d="M315,72a6.53,6.53,0,0,0-.64-2.87,6.18,6.18,0,0,0-2.29-2.37,19.29,19.29,0,0,0-4.52-2,64.5,64.5,0,0,0-7.33-1.8,73.81,73.81,0,0,1-10.05-2.78,32.85,32.85,0,0,1-7.71-3.88,16.83,16.83,0,0,1-4.95-5.25,13.45,13.45,0,0,1-1.74-6.92,15.49,15.49,0,0,1,1.8-7.27,18.48,18.48,0,0,1,5.12-6.06,26.22,26.22,0,0,1,8.11-4.14,35,35,0,0,1,10.7-1.53,37.31,37.31,0,0,1,11.21,1.56A26,26,0,0,1,321.12,31a18.62,18.62,0,0,1,5.24,6.34,17.24,17.24,0,0,1,1.83,7.83H314.34a8.24,8.24,0,0,0-.81-3.57,8.75,8.75,0,0,0-2.44-3,12.15,12.15,0,0,0-4-2.11,17.66,17.66,0,0,0-5.53-.79,19.62,19.62,0,0,0-5.42.67,12.4,12.4,0,0,0-3.8,1.74,6.82,6.82,0,0,0-2.23,2.52,6.67,6.67,0,0,0-.72,3,7.05,7.05,0,0,0,.55,2.84A5.6,5.6,0,0,0,292,48.73a16,16,0,0,0,4.18,1.88A56,56,0,0,0,303,52.2a76.94,76.94,0,0,1,10.63,2.61,32.29,32.29,0,0,1,8.06,3.83A16.29,16.29,0,0,1,326.85,64a14.2,14.2,0,0,1,1.8,7.27,15.67,15.67,0,0,1-1.91,7.65,18.1,18.1,0,0,1-5.45,6,26.82,26.82,0,0,1-8.49,3.91,40.89,40.89,0,0,1-11.09,1.39,36.57,36.57,0,0,1-12-1.82,27.78,27.78,0,0,1-8.75-4.78,20.28,20.28,0,0,1-5.36-6.72,17.33,17.33,0,0,1-1.83-7.65h13.45a9.79,9.79,0,0,0,1.5,4.92,10.41,10.41,0,0,0,3.42,3.28,15.09,15.09,0,0,0,4.64,1.79,24,24,0,0,0,5.15.55q6.44,0,9.79-2.17A6.48,6.48,0,0,0,315,72Z"/>
<path class="cls-1" d="M383.28,72a6.53,6.53,0,0,0-.64-2.87,6.18,6.18,0,0,0-2.29-2.37,19.29,19.29,0,0,0-4.52-2A64,64,0,0,0,368.5,63a73.81,73.81,0,0,1-10.05-2.78,33.05,33.05,0,0,1-7.71-3.88,16.83,16.83,0,0,1-4.95-5.25,13.45,13.45,0,0,1-1.74-6.92,15.49,15.49,0,0,1,1.8-7.27A18.39,18.39,0,0,1,351,30.82a26.11,26.11,0,0,1,8.11-4.14,34.94,34.94,0,0,1,10.69-1.53A37.26,37.26,0,0,1,381,26.71,26,26,0,0,1,389.36,31a18.62,18.62,0,0,1,5.24,6.34,17.24,17.24,0,0,1,1.83,7.83H382.58a8.24,8.24,0,0,0-.81-3.57,8.84,8.84,0,0,0-2.43-3,12.3,12.3,0,0,0-4-2.11,17.61,17.61,0,0,0-5.53-.79,19.62,19.62,0,0,0-5.42.67,12.4,12.4,0,0,0-3.8,1.74,6.91,6.91,0,0,0-2.23,2.52,6.67,6.67,0,0,0-.72,3,7.05,7.05,0,0,0,.55,2.84,5.63,5.63,0,0,0,2.06,2.32,15.78,15.78,0,0,0,4.17,1.88,56.43,56.43,0,0,0,6.89,1.59,77.1,77.1,0,0,1,10.64,2.61A32.38,32.38,0,0,1,390,58.64,16.42,16.42,0,0,1,395.1,64a14.3,14.3,0,0,1,1.79,7.27A15.56,15.56,0,0,1,395,78.92a18.06,18.06,0,0,1-5.44,6,27,27,0,0,1-8.49,3.91A41,41,0,0,1,370,90.21a36.61,36.61,0,0,1-12.05-1.82,27.89,27.89,0,0,1-8.75-4.78,20.28,20.28,0,0,1-5.36-6.72A17.32,17.32,0,0,1,342,69.24h13.44a9.89,9.89,0,0,0,1.5,4.92,10.41,10.41,0,0,0,3.42,3.28A15.09,15.09,0,0,0,365,79.23a24.16,24.16,0,0,0,5.15.55q6.44,0,9.8-2.17A6.47,6.47,0,0,0,383.28,72Z"/>
<path class="cls-1" d="M413.68,26.3h33.44V77.52h18.59V89h-52V77.52h19.47V37.83H413.68ZM432,10.08a7.33,7.33,0,0,1,2.09-5.36,7.84,7.84,0,0,1,5.85-2.11,8,8,0,0,1,5.94,2.11A7.27,7.27,0,0,1,448,10.08a7.26,7.26,0,0,1-2.12,5.36,8,8,0,0,1-5.94,2.12,7.85,7.85,0,0,1-5.85-2.12A7.31,7.31,0,0,1,432,10.08Z"/>
<path class="cls-1" d="M476.36,57.07a38.88,38.88,0,0,1,2-12.63A30.18,30.18,0,0,1,484.1,34.3a26.22,26.22,0,0,1,9.12-6.72,32.19,32.19,0,0,1,24.54,0,26.19,26.19,0,0,1,9.16,6.72,29.6,29.6,0,0,1,5.7,10.14,39.15,39.15,0,0,1,2,12.63v1.22a39.35,39.35,0,0,1-2,12.69,29.27,29.27,0,0,1-5.7,10.11,26.43,26.43,0,0,1-9.13,6.69,29.43,29.43,0,0,1-12.22,2.43,29.84,29.84,0,0,1-12.32-2.43,26.33,26.33,0,0,1-9.15-6.69A29.84,29.84,0,0,1,478.36,71a39.08,39.08,0,0,1-2-12.69Zm13.85,1.22a34.53,34.53,0,0,0,.9,8.05A21,21,0,0,0,493.89,73a14,14,0,0,0,4.78,4.52,13.71,13.71,0,0,0,6.9,1.65,13.34,13.34,0,0,0,6.75-1.65A14.14,14.14,0,0,0,517.07,73a21,21,0,0,0,2.78-6.64,34.53,34.53,0,0,0,.9-8.05V57.07a34.14,34.14,0,0,0-.9-7.94,20.49,20.49,0,0,0-2.78-6.6A14.44,14.44,0,0,0,512.32,38a14.83,14.83,0,0,0-13.71,0,14.06,14.06,0,0,0-4.75,4.52,20.68,20.68,0,0,0-2.75,6.6,34.14,34.14,0,0,0-.9,7.94Z"/>
<path class="cls-1" d="M559.67,26.3l.87,8.7a24.28,24.28,0,0,1,8.26-7.28,22.57,22.57,0,0,1,10.74-2.57,26.3,26.3,0,0,1,8.78,1.39,17.29,17.29,0,0,1,6.84,4.34,20,20,0,0,1,4.46,7.65,35.43,35.43,0,0,1,1.59,11.3V89H587.37V50.06a20.11,20.11,0,0,0-.9-6.49,10.18,10.18,0,0,0-2.55-4.17,9.42,9.42,0,0,0-4-2.23,20.12,20.12,0,0,0-5.39-.67,15.22,15.22,0,0,0-8,2,15.77,15.77,0,0,0-5.48,5.5V89h-13.9V26.3Z"/>
<!-- <path class="cls-1" d="M656.25,72a6.53,6.53,0,0,0-.64-2.87,6.18,6.18,0,0,0-2.29-2.37,19.29,19.29,0,0,0-4.52-2,64,64,0,0,0-7.33-1.8,73.81,73.81,0,0,1-10.05-2.78,33.05,33.05,0,0,1-7.71-3.88,16.83,16.83,0,0,1-5-5.25A13.45,13.45,0,0,1,617,44.15a15.49,15.49,0,0,1,1.8-7.27A18.39,18.39,0,0,1,624,30.82a26.11,26.11,0,0,1,8.11-4.14,34.94,34.94,0,0,1,10.69-1.53A37.26,37.26,0,0,1,654,26.71,26,26,0,0,1,662.33,31a18.62,18.62,0,0,1,5.24,6.34,17.24,17.24,0,0,1,1.83,7.83H655.55a8.24,8.24,0,0,0-.81-3.57,8.84,8.84,0,0,0-2.43-3,12.3,12.3,0,0,0-4-2.11,17.61,17.61,0,0,0-5.53-.79,19.62,19.62,0,0,0-5.42.67,12.4,12.4,0,0,0-3.8,1.74,6.91,6.91,0,0,0-2.23,2.52,6.67,6.67,0,0,0-.72,3,7.05,7.05,0,0,0,.55,2.84,5.63,5.63,0,0,0,2.06,2.32,15.78,15.78,0,0,0,4.17,1.88,56,56,0,0,0,6.89,1.59,76.58,76.58,0,0,1,10.63,2.61,32.29,32.29,0,0,1,8.06,3.83A16.42,16.42,0,0,1,668.07,64a14.3,14.3,0,0,1,1.79,7.27A15.56,15.56,0,0,1,668,78.92a18,18,0,0,1-5.45,6A26.87,26.87,0,0,1,654,88.82a41,41,0,0,1-11.1,1.39,36.61,36.61,0,0,1-12-1.82,27.89,27.89,0,0,1-8.75-4.78,20.28,20.28,0,0,1-5.36-6.72,17.32,17.32,0,0,1-1.82-7.65h13.44a9.89,9.89,0,0,0,1.5,4.92,10.41,10.41,0,0,0,3.42,3.28,15.09,15.09,0,0,0,4.64,1.79,24.16,24.16,0,0,0,5.15.55q6.43,0,9.8-2.17A6.47,6.47,0,0,0,656.25,72Z"/> -->
<path class="cls-2" d="M698.24,56.67V89h-13.9V4.64h28.21a36.76,36.76,0,0,1,11.68,1.88,27.12,27.12,0,0,1,9.24,5.21,23.54,23.54,0,0,1,6,8.23,26.38,26.38,0,0,1,2.18,10.92,25.3,25.3,0,0,1-2.18,10.66,23.28,23.28,0,0,1-6,8.11,27,27,0,0,1-9.24,5.16,37.62,37.62,0,0,1-11.68,1.86Zm0-11.24h14.31a17.38,17.38,0,0,0,6.32-1.08,13.9,13.9,0,0,0,4.75-3,12.78,12.78,0,0,0,3-4.58,15.64,15.64,0,0,0,1-5.79,17.16,17.16,0,0,0-1-6.09,13.5,13.5,0,0,0-3-4.78,13.73,13.73,0,0,0-4.75-3.1,17.79,17.79,0,0,0-6.32-1.15H698.24Z"/>
<path class="cls-2" d="M791.86,89a13.17,13.17,0,0,1-1-2.73c-.26-1-.48-2.16-.67-3.36A23.64,23.64,0,0,1,787,85.72,22.39,22.39,0,0,1,782.91,88a26.07,26.07,0,0,1-4.81,1.57,25.56,25.56,0,0,1-5.53.58,27.12,27.12,0,0,1-9-1.42,20.89,20.89,0,0,1-6.9-3.94,17.43,17.43,0,0,1-6-13.36q0-10.08,7.5-15.41t21.52-5.33h10.14V46.58a9.94,9.94,0,0,0-3.36-7.9q-3.36-2.93-9.5-2.93a15.93,15.93,0,0,0-4.87.67,10.09,10.09,0,0,0-3.47,1.82A7.51,7.51,0,0,0,766.54,41a8.28,8.28,0,0,0-.69,3.36H752a15.78,15.78,0,0,1,1.71-7.09,18.64,18.64,0,0,1,5-6.15,25.86,25.86,0,0,1,8.08-4.31,34,34,0,0,1,10.92-1.62A37.28,37.28,0,0,1,788,26.51a24.27,24.27,0,0,1,8.23,4,19,19,0,0,1,5.44,6.72,21.28,21.28,0,0,1,2,9.42V74.63a42.17,42.17,0,0,0,.61,7.5A23.86,23.86,0,0,0,806.06,88v1ZM775.17,79a18.51,18.51,0,0,0,5-.66,19.72,19.72,0,0,0,4.23-1.74,15.17,15.17,0,0,0,3.24-2.46,13.67,13.67,0,0,0,2.17-2.84V59.5H781q-8.46,0-12.49,2.73a8.82,8.82,0,0,0-4,7.76,10,10,0,0,0,.64,3.57,7.39,7.39,0,0,0,1.94,2.83,9.4,9.4,0,0,0,3.31,1.89A14.65,14.65,0,0,0,775.17,79Z"/>
<path class="cls-2" d="M822.67,0h33.9V77.52h19.12V89h-53V77.52h19.94v-66H822.67Z"/></svg>